<?xml version="1.0" encoding="iso-8859-1"?>
<!-- Generator: Adobe Illustrator 19.0.0, SVG Export Plug-In . SVG Version: 6.00 Build 0)  -->
<svg version="1.1" id="Capa_1" xmlns="http://www.w3.org/2000/svg" xmlns:xlink="http://www.w3.org/1999/xlink" x="0px" y="0px"
	 viewBox="0 0 512 512" style="enable-background:new 0 0 512 512;" xml:space="preserve">
<g>
	<g>
		<path d="M225.066,160.437c-22.062,0-40.012,17.949-40.012,40.012c0,22.062,17.949,40.012,40.012,40.012
			c22.063,0,40.012-17.949,40.012-40.012C265.078,178.386,247.128,160.437,225.066,160.437z"/>
	</g>
</g>
<g>
	<g>
		<path d="M331.162,93.351C272.661,34.85,177.47,34.847,118.968,93.352c-58.502,58.501-58.502,153.691,0,212.193l106.098,106.097
			l106.097-106.097C389.665,247.044,389.664,151.854,331.162,93.351z M225.066,270.469c-38.61,0-70.021-31.41-70.021-70.021
			s31.41-70.021,70.021-70.021s70.021,31.41,70.021,70.021C295.086,239.059,263.676,270.469,225.066,270.469z"/>
	</g>
</g>
<g>
	<g>
		<path d="M450.132,241.096v-72.656h-47.745c1.766,10.181,2.662,20.535,2.662,31.009c0,23.38-4.428,46.174-13.162,67.748
			c-9.055,22.369-22.346,42.41-39.505,59.568L246.285,432.862l-21.219,21.219l-21.219-21.219L97.75,326.765
			c-17.158-17.158-30.45-37.2-39.505-59.568c-8.734-21.574-13.162-44.368-13.162-67.748c0-10.473,0.896-20.828,2.662-31.009H0
			v294.086h450.132v-78.658L512,312.482L450.132,241.096z"/>
	</g>
</g>
<g>
</g>
<g>
</g>
<g>
</g>
<g>
</g>
<g>
</g>
<g>
</g>
<g>
</g>
<g>
</g>
<g>
</g>
<g>
</g>
<g>
</g>
<g>
</g>
<g>
</g>
<g>
</g>
<g>
</g>
</svg>
